<svg xmlns="http://www.w3.org/2000/svg" viewBox="0 0 82.25 82.1"><defs><style>.cls-1,.cls-3{fill:#f4b414;}.cls-2{fill:none;}.cls-3{font-size:9.49px;}.cls-3,.cls-4{font-family:Unispace-Bold, Unispace;font-weight:700;}.cls-4{font-size:5.58px;fill:#f2f2f2;}</style></defs><g id="Layer_2" data-name="Layer 2"><g id="Layer_1-2" data-name="Layer 1"><path class="cls-1" d="M82.25,41.13a41.45,41.45,0,0,1-.44,6c0,.31-.09.61-.14.91s-.15.82-.23,1.23c-.18.87-.37,1.71-.6,2.55-.15.54-.3,1.07-.47,1.6-.29.92-.6,1.82-1,2.7-.1.27-.21.54-.32.81a.84.84,0,0,0-.06.14c-.52,1.22-1.09,2.41-1.72,3.58-.29.53-.58,1-.89,1.57-.57.93-1.17,1.85-1.8,2.74-.32.44-.64.88-1,1.31l-.48.61q-.81,1-1.68,2c-.73.8-1.49,1.58-2.29,2.32H13.06a40,40,0,0,1-3.47-3.66A41.12,41.12,0,1,1,82.25,41.13Z"/><path d="M81.81,47.16c0,.31-.09.61-.14.91a.59.59,0,0,1-.22,0h-.68l.67,1.18c-.18.87-.37,1.71-.6,2.55h-.72a.27.27,0,0,0-.27.27v1.33h.52c-.37,1.19-.8,2.36-1.28,3.51a.84.84,0,0,0-.06.14c-.52,1.22-1.09,2.41-1.72,3.58a13.62,13.62,0,0,0-5.62-3.44.27.27,0,0,1-.17-.19.25.25,0,0,1,.1-.26,14.46,14.46,0,0,1,2.15-1.49,14.76,14.76,0,0,1,4-1.6V52.12a.27.27,0,0,0-.27-.27H75.58a.51.51,0,0,1-.26-.07.52.52,0,0,1-.19-.72l.56-1,.2-.36.91-1.6h-.68a.64.64,0,0,1-.28-.07.54.54,0,0,1-.17-.75l2.67-4.25a.35.35,0,0,1,.13-.14.54.54,0,0,1,.76.14Z"/><path d="M79,57.1c-.52,1.22-1.09,2.41-1.72,3.58-.29.53-.58,1-.89,1.57h-19a.77.77,0,0,1-.77-.77V58.4a.77.77,0,0,1,.34-.64,18,18,0,0,1,7.37-3V51.08A.39.39,0,0,0,64,50.7H58.93a1.57,1.57,0,0,1-.89-.28,1.54,1.54,0,0,1-.37-2.14l2.1-3,1.33-1.91.26-.38H60.24a1.58,1.58,0,0,1-.67-.23c-.08,0-.15-.12-.22-.17a1.55,1.55,0,0,1-.26-2L63,34.47a2.17,2.17,0,0,1-.38-.16,1.53,1.53,0,0,1-.52-2.12L66,25.66a1,1,0,0,1,.21-.21.79.79,0,0,1,1.11.21l3.92,6.54a1.12,1.12,0,0,1,.16.37,1.54,1.54,0,0,1-1.07,1.9l3.93,6.16a1.6,1.6,0,0,1,.24.83A1.54,1.54,0,0,1,73,43H72l3.7,5.29a1.5,1.5,0,0,1,.28.87,1.52,1.52,0,0,1-.11.57l-.2.36a1.54,1.54,0,0,1-1.24.62H69.39a.39.39,0,0,0-.39.38V54.6h0a29.51,29.51,0,0,1,4.76.69A25.38,25.38,0,0,1,79,57.1Z"/><path d="M73.19,62.25l-3.4-6.52-.59-1.11-.2-.38-2-3.92-.78-1.49L64.2,45a1.2,1.2,0,0,0-.52-.5L61.1,43.38,60.32,43l-.08,0-.89-.4-7.56-3.41-18.6-8.41,2.74-4.87a1.21,1.21,0,0,0-.36-1.59,1,1,0,0,0-1.48.39L32.23,28l-.52.91-1.92-4.12a1.06,1.06,0,0,0-1.44-.53,1.2,1.2,0,0,0-.5,1.55l2.54,5.45-.25.44L23.32,43.58,13,61.54l-3.43,6a40,40,0,0,0,3.47,3.66H69.19c.8-.74,1.56-1.52,2.29-2.32H52.64l2.74-3.92h0l.14-.2a1.21,1.21,0,0,0-.22-1.62,1,1,0,0,0-1.5.24l-3.13,4.48,0,0h0L34,33.64l16.58,7.49L59.19,45l.58.26,2.72,1.23,1.71,3.29,1.56,3,.53,1,4.43,8.45,2.44,4.66.48-.61c.34-.43.66-.87,1-1.31ZM48.66,68.77l.05.09H44.83c-8.15-6.56-11.54-17-12.6-21-.26-1-.38-1.63-.39-1.66a1.09,1.09,0,0,0-1-.93,1.11,1.11,0,0,0-1.08.89c-1.95,9-7.55,16.14-11.11,20-1.32,1.42-2.36,2.37-2.83,2.79H11.35l3.31-5.78L31.55,33.67l.68,1.4Z"/><path d="M73.19,62.25l-3.4-6.52-.59-1.11-.2-.38-2-3.92-.78-1.49L64.2,45a1.2,1.2,0,0,0-.52-.5L61.1,43.38,60.32,43l-.08,0-.89-.4-7.56-3.41-18.6-8.41,2.74-4.87a1.21,1.21,0,0,0-.36-1.59,1,1,0,0,0-1.48.39L32.23,28v7.07l16.43,33.7.05.09,1.57,2.32H69.19c.8-.74,1.56-1.52,2.29-2.32q.87-.94,1.68-2l.48-.61c.34-.43.66-.87,1-1.31ZM48.6,57.51l2.12,4-.61-.66-1.72-3.36L48,56.71l-7.73-15L48,56.33Zm2.74,7.31h-.4l-.22-.66L37.16,37.7Zm2-13.06-1.08-2.24-1.68-3.44,1.7,3.44,1.06,2.14,2.9,5.85.47,1,1.85,3.74h-.14l-1.71-3.52-.57-1.17Z"/><line class="cls-2" x1="15.78" y1="68.86" x2="44.83" y2="68.86"/><path d="M79.41,56.15c-.1.27-.21.54-.32.81a.84.84,0,0,0-.06.14c-.52,1.22-1.09,2.41-1.72,3.58-.29.53-.58,1-.89,1.57-.57.93-1.17,1.85-1.8,2.74-.32.44-.64.88-1,1.31l-.48.61q-.81,1-1.68,2c-.73.8-1.49,1.58-2.29,2.32H68v-15Z"/><path class="cls-2" d="M82.25,41.13a41.45,41.45,0,0,1-.44,6c0,.31-.09.61-.14.91s-.15.82-.23,1.23c-.18.87-.37,1.71-.6,2.55-.15.54-.3,1.07-.47,1.6-.37,1.19-.8,2.36-1.28,3.51a.84.84,0,0,0-.06.14c-.52,1.22-1.09,2.41-1.72,3.58-.29.53-.58,1-.89,1.57-.57.93-1.17,1.85-1.8,2.74-.32.44-.64.88-1,1.31l-.48.61q-.81,1-1.68,2c-.73.8-1.49,1.58-2.29,2.32H13.06a40,40,0,0,1-3.47-3.66A41.12,41.12,0,1,1,82.25,41.13Z"/><text class="cls-3" transform="translate(16.17 79.79)">trendy</text><text class="cls-4" transform="translate(52.3 78.52)">SHOP</text></g></g></svg>