<svg xmlns="http://www.w3.org/2000/svg" viewBox="0 0 61.91 59.57"><defs><style>.cls-1{fill:#a8a8a8;}.cls-2{fill:#fff;}</style></defs><g id="Layer_2" data-name="Layer 2"><g id="Layer_1-2" data-name="Layer 1"><path class="cls-1" d="M2.23,13.39V44.65A4.46,4.46,0,0,0,6.7,49.11H46.88a4.46,4.46,0,0,0,4.47-4.46V13.39ZM33.49,24.56H20.09a2.24,2.24,0,0,1,0-4.47h13.4a2.24,2.24,0,0,1,0,4.47Z"/><path class="cls-1" d="M53.58,8.93V4.46A4.47,4.47,0,0,0,49.11,0H4.46A4.46,4.46,0,0,0,0,4.46V8.93Z"/><path class="cls-2" d="M48.51,45.6V39.82a1.57,1.57,0,0,1,1.57-1.58h1.84a1.58,1.58,0,0,1,1.58,1.58V45.6a.47.47,0,0,0,.47.47h6.37a1.57,1.57,0,0,1,1.57,1.58v1.84a1.57,1.57,0,0,1-1.57,1.57H54a.47.47,0,0,0-.47.47V58a1.57,1.57,0,0,1-1.58,1.57H50.08A1.57,1.57,0,0,1,48.51,58V51.53a.47.47,0,0,0-.48-.47H41.67a1.57,1.57,0,0,1-1.58-1.57V47.65a1.58,1.58,0,0,1,1.58-1.58H48A.47.47,0,0,0,48.51,45.6Z"/></g></g></svg>