<svg xmlns="http://www.w3.org/2000/svg" viewBox="0 0 54.13 54.13"><defs><style>.cls-1{fill:#d63636;}</style></defs><g id="Layer_2" data-name="Layer 2"><g id="Layer_1-2" data-name="Layer 1"><g id="icons"><g id="exit2"><path class="cls-1" d="M27.06,21.65a5.43,5.43,0,0,0,5.42-5.41V5.41a5.42,5.42,0,0,0-10.83,0V16.24A5.43,5.43,0,0,0,27.06,21.65Z"/><path class="cls-1" d="M46.28,7.85h0a3.71,3.71,0,0,0-3-1.08,4.16,4.16,0,0,0-4.06,4.06,5.66,5.66,0,0,0,1.08,3h0a18.39,18.39,0,0,1,5.42,13.26,18.95,18.95,0,1,1-37.89,0A18.17,18.17,0,0,1,13.53,13.8h0a4.34,4.34,0,0,0,1.35-3,4.15,4.15,0,0,0-4.05-4.06,5.66,5.66,0,0,0-3,1.08h0a27.07,27.07,0,1,0,38.43,0Z"/></g></g></g></g></svg>