<svg xmlns="http://www.w3.org/2000/svg" viewBox="0 0 52.6 56.32"><defs><style>.cls-1{fill:#a8a8a8;}</style></defs><g id="Layer_2" data-name="Layer 2"><g id="Layer_1-2" data-name="Layer 1"><g id="icons"><path id="settings" class="cls-1" d="M50.23,33.79l-2.81-1.64a4.84,4.84,0,0,1,0-8.22l2.81-1.64A4.45,4.45,0,0,0,51.88,16l-2.35-4a4.46,4.46,0,0,0-6.33-1.65L40.38,12a4.69,4.69,0,0,1-7-4V4.69A4.7,4.7,0,0,0,28.65,0H24a4.7,4.7,0,0,0-4.69,4.69V7.74a4.68,4.68,0,0,1-7,4L9.4,10.32A4.55,4.55,0,0,0,3.07,12L.72,16a5.12,5.12,0,0,0,1.64,6.57l2.82,1.64a4.62,4.62,0,0,1,0,8L2.36,33.79A4.47,4.47,0,0,0,.72,40.13l2.35,4A4.46,4.46,0,0,0,9.4,45.76l2.82-1.41a4.68,4.68,0,0,1,7,4v3.28A4.71,4.71,0,0,0,24,56.32h4.7a4.71,4.71,0,0,0,4.69-4.7v-3a4.69,4.69,0,0,1,7-4l2.82,1.65a4.54,4.54,0,0,0,6.33-1.65l2.35-4A5.36,5.36,0,0,0,50.23,33.79ZM26.3,37.54a9.39,9.39,0,1,1,9.39-9.38A9.41,9.41,0,0,1,26.3,37.54Z"/></g></g></g></svg>