<svg xmlns="http://www.w3.org/2000/svg" viewBox="0 0 41.9 55.87"><defs><style>.cls-1{fill:#a8a8a8;}</style></defs><g id="Layer_2" data-name="Layer 2"><g id="Layer_1-2" data-name="Layer 1"><path class="cls-1" d="M41.9,14h-14V0Zm-14,3.49h14V50.63a5.23,5.23,0,0,1-5.23,5.24H5.24A5.24,5.24,0,0,1,0,50.63V5.24A5.25,5.25,0,0,1,5.24,0h19.2V14A3.49,3.49,0,0,0,27.94,17.46ZM7,9.6a.89.89,0,0,0,.88.88h8.73a.88.88,0,0,0,.87-.88V7.86A.88.88,0,0,0,16.59,7H7.86A.89.89,0,0,0,7,7.86Zm.88,7.86h8.73a.87.87,0,0,0,.87-.87V14.84a.87.87,0,0,0-.87-.87H7.86a.88.88,0,0,0-.88.87v1.75A.88.88,0,0,0,7.86,17.46ZM21.55,34.57l-.7-.17c-2.48-.77-2.43-1.21-2.34-1.61.15-.85,1.81-1.06,3.3-.83a11.29,11.29,0,0,1,1.92.53,2.19,2.19,0,1,0,1.43-4.13,18.15,18.15,0,0,0-2-.57v-.73a2.19,2.19,0,0,0-4.37,0v.66a5.4,5.4,0,0,0-4.56,4.33c-.81,4.68,3.62,6,5.51,6.53l.64.18c3.19.92,3.14,1.23,3,1.78-.15.85-1.81,1.07-3.31.83a16,16,0,0,1-2.58-.76L17,40.43a2.19,2.19,0,0,0-1.46,4.12l.47.16a21.27,21.27,0,0,0,2.73.82v.74a2.19,2.19,0,0,0,4.37,0v-.68c2.44-.53,4.17-2,4.56-4.31C28.51,36.56,24,35.26,21.55,34.57Z"/></g></g></svg>